<?xml version="1.0" encoding="utf-8"?><svg xmlns="http://www.w3.org/2000/svg" xmlns:xlink="http://www.w3.org/1999/xlink"><symbol viewBox="0 0 10 6" id="ic-close" xmlns="http://www.w3.org/2000/svg"><path fill-rule="evenodd" clip-rule="evenodd" d="M.47 5.53a.75.75 0 001.06 0L5 2.06l3.47 3.47a.75.75 0 001.06-1.06l-4-4a.75.75 0 00-1.06 0l-4 4a.75.75 0 000 1.06z"/></symbol><symbol viewBox="0 0 42 42" id="ic-google" xmlns="http://www.w3.org/2000/svg"><path d="M21 0C9.5 0 0 9.5 0 21s9.5 21 21 21 21-9.5 21-21S32.5 0 21 0zm3.1 22.4c-.1 1.7-.8 3.4-2 4.6-3.1 3-8.7 3-11.8-.1-3.2-3.2-3.2-8.7.1-11.8 2.4-2.4 5.8-2.9 8.8-1.7l1.2.7 1.3.9-2.1 2.1-.8-.5c-1.8-1.2-4.5-.9-6.2.8-2 2-2.1 5.5 0 7.6 2 2.1 5.5 2.1 7.4 0 .5-.5 1-1.3 1.2-2.1v-.3h-4.7V20H24l.1.7v1.7zm9.9-.2h-2.4v2.4h-2.4v-2.4h-2.4v-2.4h2.4v-2.4h2.4v2.4H34v2.4z"/></symbol><symbol viewBox="0 0 42 42" id="ic-instagram" xmlns="http://www.w3.org/2000/svg"><path clip-rule="evenodd" d="M21 42c11.598 0 21-9.402 21-21S32.598 0 21 0 0 9.402 0 21s9.402 21 21 21zm-6.662-21a6.655 6.655 0 016.665-6.666A6.655 6.655 0 0127.668 21a6.655 6.655 0 01-6.665 6.666A6.655 6.655 0 0114.338 21zm2.332 0a4.341 4.341 0 004.333 4.334A4.341 4.341 0 0025.336 21a4.338 4.338 0 00-4.333-4.334A4.338 4.338 0 0016.67 21zm11.27-5.384a1.555 1.555 0 100-3.11 1.555 1.555 0 000 3.11zm3.869-5.424c1.525 1.52 2.001 3.364 2.1 5.447.122 2.147.122 8.575 0 10.722-.105 2.082-.58 3.927-2.1 5.447-1.52 1.526-3.364 2.002-5.447 2.1-2.146.123-8.578.123-10.724 0-2.083-.104-3.921-.58-5.447-2.1-1.525-1.52-2.001-3.364-2.1-5.447-.121-2.147-.121-8.58 0-10.728.105-2.082.575-3.927 2.1-5.447 1.526-1.52 3.37-1.996 5.447-2.095 2.146-.121 8.578-.121 10.724 0 2.083.105 3.927.58 5.447 2.1zm-3.144 20.943a4.387 4.387 0 002.471-2.471c.582-1.463.55-4.663.529-6.738a82.957 82.957 0 01-.007-.926c0-.27.003-.582.007-.926.02-2.074.053-5.27-.529-6.738a4.387 4.387 0 00-2.47-2.471c-1.468-.58-4.683-.549-6.756-.529-.337.003-.643.006-.907.006-.27 0-.582-.003-.926-.006-2.073-.021-5.269-.054-6.736.529a4.387 4.387 0 00-2.471 2.471c-.58 1.468-.548 4.683-.528 6.757.003.337.006.643.006.907 0 .27-.004.582-.007.926-.021 2.074-.053 5.27.529 6.738a4.387 4.387 0 002.47 2.471c1.468.58 4.683.549 6.756.529.337-.004.643-.006.907-.006.269 0 .582.003.926.006 2.073.021 5.269.054 6.736-.529z"/></symbol><symbol viewBox="0 0 42 42" id="ic-linkedin" xmlns="http://www.w3.org/2000/svg"><path d="M21 0C9.4 0 0 9.4 0 21s9.4 21 21 21 21-9.4 21-21S32.6 0 21 0zm-5.2 31.2h-5.3V12.8h5.3v18.4zm-2.5-19.5c-1.4 0-2.5-1.1-2.5-2.5s1.1-2.5 2.5-2.5 2.5 1.1 2.5 2.5-1.2 2.5-2.5 2.5zm20.8 19.5h-5.3V19.8c0-1.3-.4-2.3-2-2.3-2.7 0-3.2 2.3-3.2 2.3v11.4h-5.3V12.8h5.3v1.8c.8-.6 2.6-1.8 5.3-1.8 1.7 0 5.3 1 5.3 7.2v11.2z"/></symbol><symbol viewBox="0 0 54 61" id="ic-logo" xmlns="http://www.w3.org/2000/svg"><path fill-rule="evenodd" clip-rule="evenodd" d="M26.274.687a1.5 1.5 0 011.452 0l25 13.818a1.5 1.5 0 01.774 1.313V44.75a1.5 1.5 0 01-.757 1.303l-25 14.25a1.5 1.5 0 01-1.486 0l-25-14.25A1.5 1.5 0 01.5 44.75V15.818a1.5 1.5 0 01.774-1.313l25-13.818zM6.115 19.932l4.309 7.442 2.162-3.697-6.47-3.745zm9.068 5.247l-3.03 5.182 2.94 5.08 8.912-5.157-8.822-5.105zM27 28.551L16.697 22.59 27 4.971 37.303 22.59 27 28.551zm0 3.466l-10.403 6.02L27 56.007l10.403-17.97L27 32.017zm11.906 3.424l-8.911-5.157 8.822-5.105 3.03 5.182-2.94 5.08zM40 39.539l-8.921 15.41 17.91-10.209-8.99-5.2zm7.842 1.072l-6.339-3.668 2.086-3.604 4.253 7.272zm2.658-1.397V21.403l-5.182 8.95 5.182 8.86zm-6.924-11.84l4.309-7.442-6.471 3.745 2.162 3.697zM39.9 21.087l9.053-5.239L31.05 5.952l8.85 15.135zM22.95 5.952L14.1 21.087l-9.054-5.239L22.95 5.952zm-.03 48.996L5.011 44.74l8.99-5.2 8.92 15.409zM12.497 36.944L10.41 33.34l-4.253 7.272 6.339-3.668zM3.5 39.213l5.182-8.86-5.182-8.95v17.81z"/><defs><linearGradient id="epaint0_linear" x1="27.086" y1="35.041" x2="54.086" y2="16.233" gradientUnits="userSpaceOnUse"><stop stop-color="#4F8066"/><stop offset=".313" stop-color="#4F8066"/><stop offset=".698" stop-color="#43793B"/><stop offset="1" stop-color="#4F8066"/></linearGradient></defs></symbol><symbol viewBox="0 0 10 6" id="ic-open" xmlns="http://www.w3.org/2000/svg"><path fill-rule="evenodd" clip-rule="evenodd" d="M9.53.47a.75.75 0 00-1.06 0L5 3.94 1.53.47A.75.75 0 00.47 1.53l4 4a.75.75 0 001.06 0l4-4a.75.75 0 000-1.06z"/></symbol><symbol viewBox="0 0 42 42" id="ic-twitter" xmlns="http://www.w3.org/2000/svg"><path d="M21 0C9.4 0 0 9.4 0 21s9.4 21 21 21 21-9.4 21-21S32.6 0 21 0zm9.4 16.2v.6c0 6.4-4.9 13.7-13.8 13.7-2.7 0-5.3-.8-7.4-2.2.4 0 .8.1 1.2.1 2.3 0 4.3-.8 6-2.1-2.1 0-3.9-1.4-4.5-3.4.3.1.6.1.9.1.4 0 .9-.1 1.3-.2-2.2-.4-3.9-2.4-3.9-4.7V18c.7.4 1.4.6 2.2.6-1.3-.9-2.1-2.3-2.1-4 0-.9.2-1.7.7-2.4 2.4 2.9 5.9 4.8 10 5.1-.1-.4-.1-.7-.1-1.1 0-2.7 2.2-4.8 4.8-4.8 1.4 0 2.6.6 3.5 1.5 1.1-.2 2.1-.6 3.1-1.2-.4 1.1-1.1 2.1-2.1 2.7 1-.1 1.9-.4 2.8-.8-.9 1.1-1.7 1.9-2.6 2.6z"/></symbol></svg>