<svg width="660" height="450" viewBox="0 0 660 450" fill="none" xmlns="http://www.w3.org/2000/svg">
<g clip-path="url(#clip0)">
<path d="M124.278 72.3396C124.278 92.5002 134.803 85.494 164.682 85.494C194.562 85.494 257.005 53.0727 257.005 32.9121C257.005 12.7515 216.918 11 187.039 11C157.16 11 124.278 52.179 124.278 72.3396Z" fill="#C0CEBE" fill-opacity="0.3"/>
<path d="M625.541 241.024C625.541 256.752 638.998 279.736 652.948 279.736C666.899 279.736 655.844 254.571 655.844 238.843C655.844 223.115 662.59 197.95 648.639 197.95C634.689 197.95 625.541 225.295 625.541 241.024Z" fill="#C0CEBE" fill-opacity="0.3"/>
<path d="M0.000732422 299.73C0.000732422 303.126 0.106628 306.486 0.318542 309.811C1.62531 330.007 7.09967 348.916 17.0595 364.609C60.2186 432.74 122.803 403.965 188.389 414.152C249.066 423.589 272.235 440.282 336.303 439.996C389.351 439.746 468.606 407.861 503.359 414.152C533.168 419.55 618.356 415.403 636.368 377.549C645.304 358.782 648.977 330.722 642.831 309.846C641.772 306.236 640.394 302.876 638.734 299.766C635.979 294.69 632.377 290.436 627.821 287.327C600.661 268.917 597.588 258.944 614.047 189.062C629.41 123.719 547.895 71.9587 506.643 80.8237C464.014 89.9746 435.265 52.2986 379.956 54.4434C285.091 58.1252 246.912 133.191 197.996 126.614C73.0392 109.706 0.283264 213.512 0.000732422 299.73Z" fill="#C0CEBE" fill-opacity="0.2"/>
<path opacity="0.3" d="M0.00134277 299.73C0.00134277 303.126 0.1073 306.486 0.319214 309.811H642.832C641.772 306.2 640.395 302.84 638.735 299.73H0.00134277Z" fill="#304E3E"/>
<path opacity="0.3" d="M117.858 363.501C112.808 369.363 136.224 390.953 214.419 389.345C251.433 388.594 293.356 397.709 346.969 397.709C386.949 397.709 426.118 392.026 457.834 390.989C555.206 387.772 553.794 376.012 556.019 366.754C562.411 340.087 439.397 340.337 325.036 340.337C210.675 340.337 133.822 344.949 117.858 363.501Z" fill="#304E3E"/>
<g opacity="0.2">
<path d="M301.126 138.898V114.198C301.126 105.404 294.062 98.2192 285.338 98.2192H226.992C218.304 98.2192 211.205 105.404 211.205 114.198V141.972C211.205 150.765 218.304 157.95 226.992 157.95H286.539C299.572 163.241 319.103 171.319 319.279 171.426L321.293 172.249L301.126 138.898ZM285.338 99.6848C293.25 99.6848 299.713 106.191 299.713 114.233V139.327L317.831 169.282C312.463 167.065 297.559 160.881 286.963 156.592L286.822 156.556H226.992C219.081 156.556 212.618 150.05 212.618 142.008V114.233C212.618 106.226 219.046 99.6848 226.992 99.6848H285.338Z" fill="#4F8066"/>
<path d="M285.338 99.6848C293.25 99.6848 299.713 106.191 299.713 114.233V139.327L317.831 169.282C312.463 167.065 297.559 160.881 286.963 156.592L286.822 156.556H226.992C219.081 156.556 212.618 150.05 212.618 142.008V114.233C212.618 106.226 219.046 99.6848 226.992 99.6848H285.338Z" fill="#4F8066"/>
</g>
<path d="M307.801 144.415V119.715C307.801 110.921 300.738 103.736 292.014 103.736H233.668C224.98 103.736 217.881 110.921 217.881 119.715V147.489C217.881 156.282 224.98 163.467 233.668 163.467H293.215C306.247 168.758 325.778 176.836 325.955 176.943L327.968 177.766L307.801 144.415ZM292.014 105.202C299.925 105.202 306.389 111.708 306.389 119.75V144.844L324.507 174.799C319.138 172.583 304.234 166.399 293.639 162.109L293.497 162.073H233.668C225.757 162.073 219.293 155.568 219.293 147.525V119.75C219.293 111.743 225.721 105.202 233.668 105.202H292.014Z" fill="white"/>
<path d="M292.014 105.202C299.925 105.202 306.389 111.708 306.389 119.75V144.844L324.507 174.799C319.138 172.583 304.234 166.399 293.639 162.109L293.497 162.073H233.668C225.757 162.073 219.293 155.568 219.293 147.525V119.75C219.293 111.743 225.721 105.202 233.668 105.202H292.014Z" fill="white"/>
<path d="M508.163 268.202H528.93L530.978 249.686H506.114L508.163 268.202Z" fill="#DBB98F"/>
<path d="M516.391 250.508C516.391 250.508 519.252 228.56 499.121 221.769C501.275 222.984 510.635 241.179 510.741 249.793C513.283 251.724 516.391 250.508 516.391 250.508Z" fill="#4F8066"/>
<path d="M515.862 242.644C515.862 242.644 515.015 220.518 535.676 215.656C533.415 216.657 522.431 233.887 521.548 242.466C518.864 244.146 515.862 242.644 515.862 242.644Z" fill="#4F8066"/>
<path d="M517.84 249.4C517.84 249.4 519.041 227.274 540.055 224.378C537.724 225.165 525.186 241.286 523.491 249.722C520.665 251.152 517.84 249.4 517.84 249.4Z" fill="#304E3E"/>
<path d="M515.544 250.008C515.544 250.008 504.56 230.848 520.56 216.764C519.041 218.73 517.31 239.141 520.489 247.148C518.864 249.901 515.544 250.008 515.544 250.008Z" fill="#304E3E"/>
<path d="M507.315 252.832H529.777C531.119 252.832 532.179 251.723 532.179 250.401C532.179 249.043 531.084 247.97 529.777 247.97H507.315C505.973 247.97 504.913 249.078 504.913 250.401C504.913 251.723 506.008 252.832 507.315 252.832Z" fill="#BA9568"/>
<path d="M369.023 75.7227L370.672 76.1199L368.178 86.7258L366.529 86.3286L369.023 75.7227Z" fill="white"/>
<path d="M363.57 79.1492L374.049 81.6731L373.657 83.3422L363.177 80.8183L363.57 79.1492Z" fill="white"/>
<path d="M352.11 413.22L353.759 413.618L351.265 424.224L349.616 423.826L352.11 413.22Z" fill="white"/>
<path d="M346.657 416.647L357.136 419.171L356.744 420.84L346.265 418.316L346.657 416.647Z" fill="white"/>
<path d="M89.3122 375.479L90.9613 375.876L88.4676 386.482L86.8184 386.085L89.3122 375.479Z" fill="white"/>
<path d="M83.8596 378.906L94.3387 381.429L93.9462 383.099L83.4671 380.575L83.8596 378.906Z" fill="white"/>
<path d="M546.301 204.933L553.747 206.019L553.581 207.186L546.135 206.101L546.301 204.933Z" fill="white"/>
<path d="M549.917 202.216L551.07 202.384L549.997 209.92L548.844 209.752L549.917 202.216Z" fill="white"/>
<path d="M599.685 336.155L601.334 336.552L598.84 347.158L597.191 346.761L599.685 336.155Z" fill="white"/>
<path d="M594.235 339.583L604.714 342.107L604.322 343.776L593.843 341.252L594.235 339.583Z" fill="white"/>
<path d="M48.5894 254.811L50.2386 255.208L47.7448 265.814L46.0957 265.417L48.5894 254.811Z" fill="white"/>
<path d="M43.1042 258.233L53.5833 260.757L53.1909 262.426L42.7117 259.903L43.1042 258.233Z" fill="white"/>
<path d="M252.02 204.989L253.669 205.386L251.176 215.992L249.527 215.595L252.02 204.989Z" fill="white"/>
<path d="M246.534 208.361L257.013 210.885L256.621 212.554L246.141 210.03L246.534 208.361Z" fill="white"/>
<path d="M530.66 105.024C530.66 103.093 529.106 101.521 527.199 101.521C525.292 101.521 523.738 103.093 523.738 105.024C523.738 106.954 525.292 108.527 527.199 108.527C529.106 108.527 530.66 106.954 530.66 105.024ZM529.954 105.024C529.954 106.561 528.718 107.848 527.164 107.848C525.645 107.848 524.373 106.596 524.373 105.024C524.373 103.487 525.61 102.2 527.164 102.2C528.718 102.2 529.954 103.487 529.954 105.024Z" fill="#4F8066"/>
<path d="M95.3607 263.699C95.3607 261.59 93.6653 259.874 91.5816 259.874C89.4978 259.874 87.8025 261.59 87.8025 263.699C87.8025 265.808 89.4978 267.523 91.5816 267.523C93.6653 267.523 95.3607 265.808 95.3607 263.699ZM94.0538 263.699C94.0538 265.093 92.959 266.201 91.5816 266.201C90.2041 266.201 89.1093 265.093 89.1093 263.699C89.1093 262.305 90.2041 261.196 91.5816 261.196C92.959 261.196 94.0538 262.305 94.0538 263.699Z" fill="#4F8066"/>
<path d="M283.643 412.722C283.643 410.613 281.948 408.898 279.864 408.898C277.78 408.898 276.085 410.613 276.085 412.722C276.085 414.831 277.78 416.547 279.864 416.547C281.948 416.512 283.643 414.796 283.643 412.722ZM282.372 412.722C282.372 414.117 281.277 415.225 279.899 415.225C278.522 415.225 277.427 414.117 277.427 412.722C277.427 411.328 278.522 410.22 279.899 410.22C281.277 410.22 282.372 411.328 282.372 412.722Z" fill="#4F8066"/>
<path d="M410.365 409.112C410.365 407.003 408.67 405.287 406.586 405.287C404.502 405.287 402.807 407.003 402.807 409.112C402.807 411.221 404.502 412.937 406.586 412.937C408.67 412.901 410.365 411.185 410.365 409.112ZM409.058 409.112C409.058 410.506 407.964 411.614 406.586 411.614C405.209 411.614 404.114 410.506 404.114 409.112C404.114 407.718 405.209 406.61 406.586 406.61C407.964 406.61 409.058 407.718 409.058 409.112Z" fill="#4F8066"/>
<path d="M155.902 174.715L156.83 174.938L155.415 180.954L154.488 180.731L155.902 174.715Z" fill="#4F8066"/>
<path d="M152.797 176.65L158.741 178.081L158.52 179.02L152.576 177.589L152.797 176.65Z" fill="#4F8066"/>
<path opacity="0.3" d="M396.026 384.519C327.931 384.519 272.73 379.814 272.73 374.01C272.73 368.206 327.931 363.5 396.026 363.5C464.121 363.5 519.323 368.206 519.323 374.01C519.323 379.814 464.121 384.519 396.026 384.519Z" fill="#304E3E"/>
<path opacity="0.3" d="M179.842 325.824C162.794 325.824 148.974 323.408 148.974 320.427C148.974 317.446 162.794 315.029 179.842 315.029C196.89 315.029 210.71 317.446 210.71 320.427C210.71 323.408 196.89 325.824 179.842 325.824Z" fill="#304E3E"/>
<path d="M453.312 316.781C448.756 329.614 436.889 361.284 428.625 370.578L317.301 371.007C317.301 371.007 298.582 351.526 293.461 343.054C266.337 298.408 274.919 275.137 294.203 263.448C294.874 263.02 295.58 262.626 296.322 262.233C319.138 249.829 354.739 252.01 366.076 254.19C366.217 254.226 366.358 254.262 366.5 254.262C403.902 261.876 419.583 143.486 449.993 161.359C452.712 162.967 455.114 166.506 457.162 171.582C468.464 199.428 468.959 272.85 453.312 316.781Z" fill="#BA9568"/>
<path d="M457.162 171.582C457.091 177.516 456.35 184.415 454.796 192.35C443.67 249.007 443.211 269.132 426.117 285.432C416.581 294.511 349.582 312.563 316.913 291.795C298.123 279.856 296.499 270.669 296.322 262.197C319.138 249.794 354.739 251.974 366.076 254.155C366.217 254.19 366.358 254.226 366.5 254.226C403.902 261.876 419.583 143.486 449.992 161.359C452.712 162.967 455.114 166.506 457.162 171.582Z" fill="#DBB98F"/>
<path d="M329.239 223.413C333.865 220.339 335.137 214.048 332.099 209.365C329.062 204.682 322.846 203.395 318.219 206.47C313.593 209.544 312.321 215.835 315.359 220.518C318.396 225.2 324.612 226.487 329.239 223.413Z" fill="#F8A887"/>
<path d="M394.048 157.391C398.922 159.643 401.041 165.469 398.781 170.367L382.746 204.968L381.969 206.648C381.439 207.757 380.733 208.757 379.956 209.687C378.367 211.546 376.353 212.975 374.128 213.869C373.563 214.084 372.998 214.262 372.398 214.441C372.115 214.512 371.797 214.584 371.515 214.655L371.056 214.727L369.572 214.977L366.641 215.478L354.915 217.479L331.428 221.483L328.532 206.076L351.807 201.036L363.462 198.498L366.358 197.855L367.806 197.533L367.983 197.498C368.018 197.498 368.16 197.462 368.089 197.462C368.054 197.462 367.983 197.498 367.948 197.498C367.842 197.533 367.736 197.533 367.63 197.569C367.241 197.712 366.853 197.926 366.57 198.248C366.429 198.391 366.288 198.57 366.182 198.784C366.076 199.035 366.252 198.606 366.323 198.427L366.606 197.748L381.121 162.502C383.276 157.462 389.103 155.139 394.048 157.391Z" fill="#86A782"/>
<path d="M427.601 254.083C383.029 245.611 385.642 261.053 366.358 254.19C376.954 228.167 381.439 210.366 379.921 171.475C379.497 160.644 386.561 151.35 396.909 150.778C404.114 150.456 411.354 150.17 418.559 149.848C428.872 149.241 438.761 159.893 439.503 173.512C441.304 207.328 437.631 196.604 427.601 254.083Z" fill="#6A8F65"/>
<path d="M419.054 151.743C419.477 155.282 408.635 162.181 401.147 162.753C393.66 163.325 392.388 157.355 391.929 153.816C391.505 150.278 397.191 146.989 404.679 146.381C412.202 145.809 418.63 148.204 419.054 151.743Z" fill="white"/>
<path d="M346.509 356.28L351.382 367.861C351.382 367.861 352.265 369.541 354.914 369.541C357.563 369.541 358.623 368.326 358.976 367.79C359.329 367.253 357.175 358.103 357.175 358.103L346.509 356.28Z" fill="#F8A887"/>
<path d="M333.653 376.476H348.981C349.476 376.297 350.006 376.119 350.571 375.94C351.242 375.761 353.82 375.654 353.82 375.654L353.785 376.476H360.319C360.637 374.474 360.248 368.29 360.248 367.861C360.248 367.325 359.648 367.182 359.4 367.325C359.153 367.468 356.963 369.184 355.021 369.184C353.078 369.184 351.595 367.254 351.065 367.182C350.536 367.111 349.017 368.04 349.017 368.04C349.017 368.04 336.373 374.26 334.819 374.796C333.441 375.225 333.653 375.94 333.653 376.476Z" fill="#EBEBEB"/>
<path d="M360.283 376.476C360.354 375.975 360.389 375.189 360.389 374.331C358.376 374.367 355.374 374.295 354.103 374.295C352.549 374.295 350.076 375.475 348.699 375.475C347.675 375.475 338.457 375.475 333.724 375.475C333.547 375.797 333.618 376.154 333.583 376.476H348.911C349.405 376.297 349.935 376.118 350.5 375.94C351.171 375.761 353.75 375.654 353.75 375.654L353.714 376.476H360.283Z" fill="#323232"/>
<path d="M306.635 355.136L299.147 366.718C299.147 366.718 301.09 368.398 303.739 368.398C306.387 368.398 307.447 367.182 307.8 366.646C308.153 366.11 317.301 356.959 317.301 356.959L306.635 355.136Z" fill="#F8A887"/>
<path d="M282.441 375.297H297.77C298.264 375.118 298.794 374.939 299.359 374.76C300.03 374.582 302.608 374.474 302.608 374.474L302.573 375.297H309.107C309.425 373.295 309.036 367.111 309.036 366.682C309.036 366.146 308.436 366.003 308.189 366.146C307.941 366.289 305.752 368.004 303.809 368.004C301.867 368.004 300.383 366.074 299.853 366.003C299.324 365.931 297.805 366.861 297.805 366.861C297.805 366.861 285.161 373.08 283.607 373.617C282.265 374.045 282.477 374.76 282.441 375.297Z" fill="#EBEBEB"/>
<path d="M309.107 375.297C309.178 374.796 309.213 374.01 309.213 373.152C307.2 373.188 304.198 373.116 302.926 373.116C301.372 373.116 298.9 374.296 297.522 374.296C296.498 374.296 287.28 374.296 282.547 374.296C282.371 374.618 282.442 374.975 282.406 375.297H297.734C298.229 375.118 298.759 374.939 299.324 374.761C299.995 374.582 302.573 374.475 302.573 374.475L302.538 375.297H309.107Z" fill="#323232"/>
<path d="M359.86 359.175C357.918 333.081 346.58 291.58 342.272 287.505C361.626 284.145 371.445 279.105 396.415 279.105C421.385 279.105 423.61 250.687 423.61 250.687C423.61 250.687 314.441 236.568 308.825 264.378C305.788 279.498 331.641 336.513 343.402 359.211H359.86V359.175Z" fill="#1D1F1D"/>
<path d="M428.625 250.223C428.625 250.223 339.27 245.754 334.89 273.564C332.524 288.685 314.935 336.119 302.574 358.782H317.196C368.619 311.312 361.414 297.621 360.567 286.898C375.612 283.537 393.13 286.647 410.648 278.247C429.155 269.346 428.625 250.223 428.625 250.223Z" fill="#323232"/>
<path d="M416.864 123.468C416.864 123.468 414.462 147.132 415.593 151.529C412.025 156.354 398.993 156.569 394.719 155.604C393.837 151.028 394.119 134.085 394.861 133.334C395.602 132.583 406.728 125.756 406.728 125.756L416.864 123.468Z" fill="#F8A887"/>
<path opacity="0.35" d="M414.392 142.449C415.805 140.519 415.84 134.657 416.228 130.868L406.692 133.012C406.692 133.012 394.967 138.982 394.225 139.733C393.766 140.197 394.366 147.883 394.437 154.102C401.536 152.637 411.566 146.346 414.392 142.449Z" fill="#F8A887"/>
<path d="M416.369 117.892C416.369 117.892 416.722 132.405 413.191 136.337C409.659 140.269 396.308 149.134 389.28 146.489C382.216 143.843 384.724 113.138 385.819 109.706C386.914 106.275 392.565 101.056 399.169 100.555C405.774 100.055 410.436 98.5178 412.202 102.486C413.897 106.453 416.369 117.892 416.369 117.892Z" fill="#F8A887"/>
<path d="M412.626 121.645C412.626 122.467 407.469 129.33 406.727 129.831C405.986 130.331 388.715 131.332 386.49 131.404C384.265 131.475 384.406 127.4 384.406 127.4C384.406 127.4 377.484 148.311 390.834 148.99C404.185 149.67 415.804 138.66 415.804 136.086C415.769 133.513 412.626 121.645 412.626 121.645Z" fill="#4F280C"/>
<path d="M412.626 130.01L410.684 126.9C410.684 126.9 411.531 113.674 409.836 107.955C408.247 108.455 394.296 113.531 385.643 109.206C376.955 104.88 380.628 95.5866 383.948 93.2274C387.232 90.8682 398.884 87.3371 406.94 91.3686C408.949 92.3738 411.708 94.5857 411.708 94.5857C411.708 94.5857 417.737 97.3112 420.396 100.412C427.032 108.15 419.796 126.507 419.796 126.507L412.626 130.01Z" fill="#4F280C"/>
<path d="M414.144 125.542C412.202 127.972 412.096 131.118 413.862 132.548C415.628 133.978 418.63 133.191 420.572 130.725C422.515 128.294 422.621 125.148 420.855 123.719C419.054 122.289 416.052 123.075 414.144 125.542Z" fill="#F8A887"/>
<path d="M395.566 133.727C395.249 134.549 393.871 137.802 390.692 137.838C387.055 137.874 386.384 134.263 386.207 133.834L395.566 133.727Z" fill="white"/>
<path d="M364.371 230.8C358.906 229.882 355.211 224.654 356.119 219.123C357.026 213.592 362.192 209.853 367.657 210.771C373.122 211.689 376.816 216.918 375.909 222.449C375.001 227.98 369.836 231.719 364.371 230.8Z" fill="#F8A887"/>
<path d="M430.497 156.604C435.583 158.356 438.232 163.968 436.43 169.08L423.786 205.075L423.151 206.827C422.727 207.971 422.127 209.043 421.455 210.044C420.078 212.046 418.206 213.69 416.052 214.763C415.522 215.048 414.957 215.263 414.392 215.477C414.109 215.585 413.827 215.656 413.544 215.763L413.12 215.871L411.672 216.264L408.811 217.05L397.333 220.196L374.341 226.487L369.961 211.438L392.671 204.146L404.008 200.5L406.834 199.571L408.246 199.106L408.423 199.034C408.458 199.034 408.6 198.999 408.529 198.999C408.494 198.999 408.423 199.034 408.388 199.034C408.282 199.07 408.176 199.106 408.105 199.142C407.717 199.32 407.363 199.606 407.116 199.928C406.975 200.107 406.869 200.285 406.798 200.5C406.692 200.75 406.869 200.321 406.904 200.107L407.116 199.392L418.206 162.896C419.796 157.712 425.376 154.853 430.497 156.604Z" fill="#86A782"/>
<path d="M374.517 252.796H412.344V248.006C412.344 247.506 411.955 247.077 411.425 247.077H374.482V252.796H374.517Z" fill="url(#paint0_linear)"/>
<path d="M378.826 252.832H317.089L299.572 209.365C298.583 206.934 300.207 204.146 302.609 204.146H357.07C358.377 204.146 359.578 205.004 360.107 206.327L378.826 252.832Z" fill="url(#paint1_linear)"/>
<path d="M375.047 252.832H313.31L295.792 209.365C294.803 206.934 296.428 204.146 298.83 204.146H353.291C354.597 204.146 355.798 205.004 356.328 206.327L375.047 252.832Z" fill="white"/>
<path d="M338.457 229.418C337.751 226.451 334.572 224.056 331.393 224.056C328.215 224.056 326.237 226.451 326.943 229.418C327.649 232.385 330.828 234.78 334.007 234.78C337.185 234.78 339.163 232.385 338.457 229.418Z" fill="#F2F6F4"/>
<path d="M465.391 282.894H478.53V373.974H465.391V282.894Z" fill="#323232"/>
<path d="M428.801 373.974H515.119L514.66 373.795C500.957 368.898 486.511 366.396 471.96 366.396C457.409 366.396 442.964 368.898 429.26 373.795L428.801 373.974Z" fill="#323232"/>
<path d="M419.83 290.329H524.126L533.768 273.564H410.153L419.83 290.329Z" fill="url(#paint2_linear)"/>
<path d="M405.386 280.285H538.536C539.101 280.285 539.56 279.82 539.56 279.248V269.311C539.56 268.739 539.101 268.274 538.536 268.274H405.421C404.856 268.274 404.397 268.739 404.397 269.311V279.284C404.397 279.82 404.856 280.285 405.386 280.285Z" fill="url(#paint3_linear)"/>
<path d="M454.09 248.9C454.09 248.9 450.947 266.808 442.188 266.808C433.429 266.808 433.429 266.808 433.429 266.808C433.429 266.808 429.049 255.263 426.224 248.9C436.254 248.9 454.09 248.9 454.09 248.9Z" fill="url(#paint4_linear)"/>
<path d="M433.04 264.664C433.747 264.664 434.277 264.092 434.277 263.413C434.277 262.734 433.711 262.162 433.04 262.162C429.226 262.162 426.824 260.803 425.906 258.087C425.341 256.407 425.412 254.87 426.118 253.869C426.648 253.154 427.46 252.76 428.484 252.76C429.191 252.76 429.72 252.189 429.72 251.509C429.72 250.794 429.155 250.258 428.484 250.258C426.612 250.258 425.058 251.045 424.07 252.439C422.904 254.119 422.692 256.478 423.504 258.945C424.811 262.591 428.166 264.664 433.04 264.664Z" fill="url(#paint5_linear)"/>
<path d="M458.505 264.092C458.257 264.163 456.138 265.593 454.266 266.844C452.43 268.095 450.275 268.739 448.05 268.739H425.023C423.751 268.739 422.55 268.274 421.597 267.416L417.888 264.056H458.505V264.092Z" fill="url(#paint6_linear)"/>
<path d="M424.67 269.275C424.811 269.275 424.952 269.275 425.129 269.239C425.411 269.203 425.588 268.953 425.553 268.667C425.517 268.381 425.235 268.203 424.988 268.238C423.186 268.524 420.537 266.165 419.054 264.557H458.505C458.787 264.557 458.999 264.342 458.999 264.056C458.999 263.77 458.787 263.556 458.505 263.556H417.889C417.712 263.556 417.535 263.663 417.429 263.842C417.359 264.02 417.359 264.235 417.5 264.378C417.677 264.628 421.597 269.275 424.67 269.275Z" fill="white"/>
<path d="M176.522 288.935C176.522 288.935 187.542 240.392 212.477 232.922C204.106 239.427 188.813 285.075 186.835 289.328C184.822 293.582 176.522 288.935 176.522 288.935Z" fill="#304E3E"/>
<g opacity="0.5">
<path opacity="0.5" d="M189.096 269.346C189.096 269.346 184.681 272.277 180.69 274.923C180.09 276.674 179.525 278.318 179.065 279.82L187.683 273.922C187.683 273.922 189.06 276.781 190.438 279.641C191.003 278.068 191.639 276.388 192.31 274.601L189.096 269.346Z" fill="white"/>
<path opacity="0.5" d="M192.239 258.766C192.239 258.766 188.848 261.018 185.352 263.341C184.54 265.128 183.763 266.916 183.092 268.667L190.862 263.341C190.862 263.341 192.557 266.88 194.111 270.026C194.747 268.381 195.418 266.665 196.089 264.914L192.239 258.766Z" fill="white"/>
<path opacity="0.5" d="M198.596 247.291C198.596 247.291 195.629 248.757 192.309 250.401C191.25 252.045 190.226 253.725 189.272 255.441L196.653 251.652C196.653 251.652 197.748 254.905 198.843 258.051C199.585 256.263 200.362 254.44 201.104 252.725L198.596 247.291Z" fill="white"/>
<path opacity="0.5" d="M197.677 243.252L204.211 240.964C204.211 240.964 204.494 242.501 204.882 244.503C205.765 242.716 206.648 241.036 207.531 239.534L206.719 236.889C206.719 236.889 205.13 237.425 202.905 238.176C201.033 239.642 199.302 241.357 197.677 243.252Z" fill="white"/>
</g>
<path d="M184.469 292.796C184.469 292.796 177.123 243.538 152.859 234.173C160.735 241.286 172.531 288.006 174.191 292.402C175.816 296.763 184.469 292.796 184.469 292.796Z" fill="#304E3E"/>
<g opacity="0.5">
<path opacity="0.5" d="M173.414 272.277C173.414 272.277 177.617 275.53 181.361 278.497C181.855 280.284 182.244 281.964 182.632 283.501L174.474 276.96C174.474 276.96 172.884 279.712 171.295 282.429C170.836 280.821 170.341 279.069 169.812 277.246L173.414 272.277Z" fill="white"/>
<path opacity="0.5" d="M171.083 261.482C171.083 261.482 174.297 263.984 177.617 266.594C178.288 268.453 178.923 270.276 179.488 272.063L172.142 266.165C172.142 266.165 170.2 269.561 168.398 272.563C167.904 270.848 167.374 269.096 166.809 267.344L171.083 261.482Z" fill="white"/>
<path opacity="0.5" d="M165.608 249.543C165.608 249.543 168.434 251.223 171.647 253.154C172.601 254.869 173.449 256.621 174.296 258.408L167.233 254.047C167.233 254.047 165.891 257.193 164.584 260.231C163.983 258.372 163.348 256.549 162.747 254.726L165.608 249.543Z" fill="white"/>
<path opacity="0.5" d="M166.81 245.575L160.488 242.787C160.488 242.787 160.064 244.289 159.534 246.255C158.792 244.396 158.015 242.644 157.274 241.071L158.263 238.498C158.263 238.498 159.817 239.141 161.971 240.071C163.702 241.751 165.326 243.574 166.81 245.575Z" fill="white"/>
</g>
<path d="M182.844 287.934C182.844 287.934 147.42 253.368 122.52 260.839C133.045 261.661 170.483 291.473 174.438 293.94C178.394 296.406 182.844 287.934 182.844 287.934Z" fill="#304E3E"/>
<g opacity="0.4">
<path opacity="0.4" d="M161.759 278.462C161.759 278.462 167.056 278.462 171.789 278.498C173.237 279.606 174.579 280.714 175.815 281.715L165.396 281.536C165.396 281.536 165.785 284.682 166.173 287.863C164.831 286.862 163.419 285.79 161.865 284.682L161.759 278.462Z" fill="white"/>
<path opacity="0.4" d="M153.388 271.313C153.388 271.313 157.45 271.313 161.653 271.349C163.313 272.421 164.902 273.493 166.421 274.566L157.026 274.423C157.026 274.423 157.521 278.319 157.909 281.822C156.496 280.786 155.013 279.713 153.494 278.641L153.388 271.313Z" fill="white"/>
<path opacity="0.4" d="M141.91 265.2C141.91 265.2 145.159 264.771 148.868 264.343C150.634 265.129 152.399 265.987 154.13 266.916L145.901 267.81C145.901 267.81 146.749 271.134 147.526 274.351C145.936 273.243 144.312 272.171 142.758 271.134L141.91 265.2Z" fill="white"/>
<path opacity="0.4" d="M140.461 261.34L133.786 263.02C133.786 263.02 134.386 264.485 135.128 266.38C133.398 265.379 131.773 264.45 130.219 263.663L129.477 261.018C129.477 261.018 131.102 260.589 133.362 259.981C135.729 260.196 138.095 260.661 140.461 261.34Z" fill="white"/>
</g>
<path d="M176.663 291.366C176.663 291.366 206.825 252.01 232.537 255.835C222.224 258.158 189.378 293.082 185.846 296.084C182.279 299.087 176.663 291.366 176.663 291.366Z" fill="#304E3E"/>
<g opacity="0.5">
<path opacity="0.5" d="M196.229 278.926C196.229 278.926 191.002 279.677 186.305 280.428C185.033 281.75 183.832 283.001 182.773 284.181L193.05 282.501C193.05 282.501 193.086 285.682 193.192 288.864C194.357 287.684 195.629 286.433 197.006 285.075L196.229 278.926Z" fill="white"/>
<path opacity="0.5" d="M203.47 270.669C203.47 270.669 199.444 271.241 195.311 271.884C193.828 273.171 192.38 274.458 191.038 275.745L200.291 274.243C200.291 274.243 200.362 278.175 200.468 281.678C201.739 280.427 203.046 279.176 204.388 277.889L203.47 270.669Z" fill="white"/>
<path opacity="0.5" d="M213.995 262.948C213.995 262.948 210.71 263.019 207.002 263.126C205.342 264.163 203.752 265.271 202.163 266.415L210.428 266.093C210.428 266.093 210.074 269.489 209.756 272.814C211.169 271.491 212.617 270.204 214.03 268.917L213.995 262.948Z" fill="white"/>
<path opacity="0.5" d="M214.842 258.909L221.694 259.623C221.694 259.623 221.305 261.16 220.846 263.126C222.4 261.875 223.919 260.732 225.296 259.731L225.649 257.014C225.649 257.014 223.954 256.8 221.658 256.549C219.398 257.086 217.102 257.908 214.842 258.909Z" fill="white"/>
</g>
<path d="M156.461 288.935C153.353 296.013 152.647 303.877 154.378 309.453C157.415 319.14 167.763 321.642 179.595 321.642C191.427 321.642 201.775 319.14 204.812 309.453C206.543 303.841 205.837 295.977 202.729 288.935H156.461Z" fill="#DBB98F"/>
<path d="M205.236 292.224H153.953C153.706 292.224 153.53 292.009 153.53 291.795V286.111C153.53 285.861 153.741 285.682 153.953 285.682H205.236C205.483 285.682 205.66 285.897 205.66 286.111V291.795C205.66 292.045 205.483 292.224 205.236 292.224Z" fill="#BA9568"/>
<path d="M485.181 162.174C475.747 152.626 475.747 137.145 485.181 127.597C494.615 118.049 509.911 118.049 519.345 127.597C528.779 137.145 528.779 152.626 519.345 162.174C509.911 171.723 494.615 171.723 485.181 162.174Z" fill="white"/>
<path opacity="0.8" d="M489.402 157.903C482.299 150.713 482.299 139.058 489.402 131.868C496.505 124.679 508.022 124.679 515.125 131.868C522.228 139.058 522.228 150.713 515.125 157.903C508.022 165.092 496.505 165.092 489.402 157.903Z" fill="white"/>
<path d="M510.277 152.454L510.395 152.537L510.532 152.583C510.543 152.587 510.552 152.59 510.57 152.597L510.586 152.603C510.61 152.611 510.654 152.627 510.703 152.642C510.814 152.676 510.958 152.707 511.134 152.707C511.365 152.707 511.601 152.651 511.812 152.536C511.974 152.448 512.177 152.292 512.314 152.044C512.781 151.345 512.523 150.445 511.916 150.028L504.011 144.468V132.583C504.011 131.792 503.363 131.119 502.552 131.119C501.741 131.119 501.093 131.792 501.093 132.583V145.237C501.093 145.585 501.241 146.162 501.771 146.477L510.277 152.454Z" fill="#4F8066" stroke="#4F8066" stroke-width="2"/>
</g>
<defs>
<linearGradient id="paint0_linear" x1="404.449" y1="250.008" x2="388.115" y2="246.356" gradientUnits="userSpaceOnUse">
<stop stop-color="white"/>
<stop offset="1" stop-color="#EBEBEB"/>
</linearGradient>
<linearGradient id="paint1_linear" x1="385.368" y1="255.185" x2="326.193" y2="227.497" gradientUnits="userSpaceOnUse">
<stop stop-color="white"/>
<stop offset="0.331353" stop-color="#EBEBEB"/>
</linearGradient>
<linearGradient id="paint2_linear" x1="471.967" y1="288.633" x2="471.967" y2="408.901" gradientUnits="userSpaceOnUse">
<stop stop-color="#878787"/>
<stop offset="1" stop-color="#424242"/>
</linearGradient>
<linearGradient id="paint3_linear" x1="539.541" y1="274.276" x2="404.393" y2="274.276" gradientUnits="userSpaceOnUse">
<stop stop-color="white"/>
<stop offset="0.138" stop-color="#FCFCFC"/>
<stop offset="1" stop-color="#EBEBEB"/>
</linearGradient>
<linearGradient id="paint4_linear" x1="448.28" y1="258.078" x2="435.691" y2="257.416" gradientUnits="userSpaceOnUse">
<stop stop-color="white"/>
<stop offset="1" stop-color="#EBEBEB"/>
</linearGradient>
<linearGradient id="paint5_linear" x1="421.457" y1="260.394" x2="430.561" y2="257.433" gradientUnits="userSpaceOnUse">
<stop stop-color="white"/>
<stop offset="1" stop-color="#EBEBEB"/>
</linearGradient>
<linearGradient id="paint6_linear" x1="409.966" y1="274.375" x2="449.639" y2="261.474" gradientUnits="userSpaceOnUse">
<stop stop-color="white"/>
<stop offset="1" stop-color="#EBEBEB"/>
</linearGradient>
<clipPath id="clip0">
<rect width="660" height="450" rx="8" fill="white"/>
</clipPath>
</defs>
</svg>
