<svg width="80" height="80" viewBox="0 0 80 80" fill="none" xmlns="http://www.w3.org/2000/svg">
<rect width="80" height="80" rx="8" fill="#4F8066"/>
<path d="M58.75 52.5V54.5833C58.75 56.875 56.875 58.75 54.5833 58.75H25.4167C23.1042 58.75 21.25 56.875 21.25 54.5833V25.4167C21.25 23.125 23.1042 21.25 25.4167 21.25H54.5833C56.875 21.25 58.75 23.125 58.75 25.4167V27.5H40C37.6875 27.5 35.8333 29.375 35.8333 31.6667V48.3333C35.8333 50.625 37.6875 52.5 40 52.5H58.75ZM40 48.3333H60.8333V31.6667H40V48.3333ZM48.3333 43.125C46.6042 43.125 45.2083 41.7292 45.2083 40C45.2083 38.2708 46.6042 36.875 48.3333 36.875C50.0625 36.875 51.4583 38.2708 51.4583 40C51.4583 41.7292 50.0625 43.125 48.3333 43.125Z" fill="white"/>
</svg>
