<svg width="80" height="80" viewBox="0 0 80 80" fill="none" xmlns="http://www.w3.org/2000/svg">
<rect width="80" height="80" rx="8" fill="#4F8066"/>
<path d="M40.0001 19.1667C28.5001 19.1667 19.1667 28.5 19.1667 40C19.1667 51.5 28.5001 60.8334 40.0001 60.8334C51.5001 60.8334 60.8334 51.5 60.8334 40C60.8334 28.5 51.5001 19.1667 40.0001 19.1667ZM37.9167 56.5209C29.6876 55.5 23.3334 48.5 23.3334 40C23.3334 38.7084 23.5001 37.4792 23.7709 36.2709L33.7501 46.25V48.3334C33.7501 50.625 35.6251 52.5 37.9167 52.5V56.5209ZM52.2917 51.2292C51.7501 49.5417 50.2084 48.3334 48.3334 48.3334H46.2501V42.0834C46.2501 40.9375 45.3126 40 44.1667 40H31.6667V35.8334H35.8334C36.9792 35.8334 37.9167 34.8959 37.9167 33.75V29.5834H42.0834C44.3751 29.5834 46.2501 27.7084 46.2501 25.4167V24.5625C52.3543 27.0417 56.6668 33.0209 56.6668 40C56.6668 44.3334 55.0001 48.2709 52.2917 51.2292Z" fill="white"/>
</svg>
