<svg width="24" height="24" viewBox="0 0 24 24" fill="none" xmlns="http://www.w3.org/2000/svg">
<g clip-path="url(#clip0)">
<path d="M21.3332 0.000732422H2.66648C1.19982 0.000732422 -0.000183105 1.20073 -0.000183105 2.6674V21.3341C-0.000183105 22.8021 1.19982 24.0007 2.66648 24.0007H11.9998V14.6674H9.33315V11.3674H11.9998V8.63407C11.9998 5.74873 13.6158 3.72207 17.0212 3.72207L19.4252 3.72473V7.19807H17.8292C16.5038 7.19807 15.9998 8.19273 15.9998 9.1154V11.3687H19.4238L18.6665 14.6674H15.9998V24.0007H21.3332C22.7998 24.0007 23.9998 22.8021 23.9998 21.3341V2.6674C23.9998 1.20073 22.7998 0.000732422 21.3332 0.000732422Z" fill="#304E3E"/>
</g>
<defs>
<clipPath id="clip0">
<rect width="24" height="24" fill="white"/>
</clipPath>
</defs>
</svg>
