<svg width="288" height="160" viewBox="0 0 288 160" fill="none" xmlns="http://www.w3.org/2000/svg">
<rect width="288" height="160" fill="#F2F6F4"/>
<g filter="url(#filter0_d)">
<path d="M209 18L197.201 45.6037L188.579 39.7217L183.581 46.9624L182.679 34.7483L172.243 28.4065L209 18Z" fill="white"/>
</g>
<g filter="url(#filter1_d)">
<path d="M186.643 38.422L197.177 45.6106L188.554 39.7286L183.556 46.9694L182.655 34.7553L199.284 24.8794L186.643 38.422Z" fill="#C0CBC6"/>
</g>
<path d="M182.875 37.7853L199.283 24.9163L182.654 34.7922L182.875 37.7853Z" fill="#B6C4B6"/>
<path d="M183.827 53.3264L184.652 53.1802C184.46 52.1009 184.361 51.001 184.355 49.9102L183.517 49.9147C183.523 51.0519 183.627 52.2001 183.827 53.3264ZM189.56 53.8184C190.512 53.6059 191.489 53.4977 192.463 53.4977L192.803 53.5022L192.823 52.667C191.67 52.6393 190.507 52.7507 189.377 53.0038L189.56 53.8184ZM198.787 55.4489L199.372 54.852C198.635 54.132 197.627 53.5924 196.29 53.2028L196.008 53.991C197.239 54.3497 198.158 54.8359 198.787 55.4489ZM183.728 56.7047C184.498 56.1451 185.326 55.5577 186.221 55.069L186.502 54.9209L186.118 54.179C186.018 54.2299 185.918 54.2827 185.82 54.3361C184.88 54.8494 183.993 55.4792 183.234 56.0298L183.728 56.7047ZM147.755 57.8052L148.013 57.0112C146.948 56.6667 145.888 56.3067 144.834 55.9332L144.555 56.7201C145.615 57.0962 146.683 57.4587 147.755 57.8052ZM154.262 59.6547L154.459 58.8433C153.412 58.5895 152.321 58.3017 151.219 57.9874L150.989 58.7911C152.102 59.1079 153.203 59.3984 154.262 59.6547ZM186.155 59.7474L186.881 59.3314C186.339 58.3899 185.874 57.3879 185.5 56.3537L184.712 56.6364C185.103 57.717 185.588 58.7634 186.155 59.7474ZM177.797 60.0797C178.781 59.7461 179.704 59.3378 180.54 58.8677C180.671 58.7943 180.802 58.717 180.931 58.6398L180.499 57.9243C180.377 57.9977 180.254 58.0699 180.129 58.1394C179.338 58.585 178.463 58.9721 177.527 59.2895L177.797 60.0797ZM160.917 60.9239L161.03 60.0964C159.953 59.9503 158.843 59.7674 157.73 59.5536L157.572 60.3733C158.699 60.5903 159.825 60.7758 160.917 60.9239ZM171.082 61.3039L171.617 61.2626C172.646 61.177 173.58 61.0617 174.469 60.9078L174.326 60.0848C173.461 60.2342 172.552 60.3469 171.548 60.4306L171.024 60.4699L171.082 61.3039ZM167.685 61.4133L167.689 60.5781C166.599 60.573 165.476 60.5285 164.353 60.4461L164.292 61.2788C165.433 61.3625 166.575 61.4082 167.685 61.4133ZM200.089 61.604C200.561 60.6496 200.811 59.6006 200.811 58.5696C200.811 58.4852 200.809 58.4009 200.805 58.3159L200.795 58.1349L199.96 58.1961L199.968 58.3487C199.971 58.4234 199.973 58.4968 199.973 58.5696C199.973 59.4731 199.754 60.3939 199.337 61.2343L200.089 61.604ZM190.915 64.7092L191.285 63.9596C190.414 63.532 189.571 62.8706 188.779 61.9916L188.157 62.5499C189.019 63.5082 189.948 64.2352 190.915 64.7092ZM194.394 65.3898C195.61 65.3087 196.773 64.9223 197.758 64.2706L197.295 63.5751C196.431 64.1457 195.409 64.4851 194.338 64.5559L194.394 65.3898Z" fill="#C0CBC6"/>
<path fill-rule="evenodd" clip-rule="evenodd" d="M102.43 66.6606L100.309 64.2778C98.9184 62.4415 98.4784 60.019 99.0378 57.8173C99.823 56.2322 101.216 55.0145 102.919 54.4539L148.559 39.4226C150.022 38.941 151.555 38.9909 152.925 39.4884C154.294 39.9853 155.5 40.9293 156.311 42.2358L181.584 83.0042C182.525 84.5233 182.873 86.1209 182.391 88.0623C181.599 91.2472 180.636 92.8694 175.599 93.0354L174.873 90.1775C175.463 88.5617 178.132 85.8892 176.781 84.951C176.995 83.2707 177.375 82.0703 175.711 81.4666L109.587 57.4676C107.658 56.7674 105.662 57.8083 104.96 59.7312L102.43 66.6606Z" fill="url(#paint0_linear)"/>
<path fill-rule="evenodd" clip-rule="evenodd" d="M102.43 66.6606L100.309 64.2778C98.9184 62.4415 98.4784 60.019 99.0378 57.8173C99.823 56.2322 101.216 55.0145 102.919 54.4539L148.559 39.4226C150.022 38.941 151.555 38.9909 152.925 39.4884C154.294 39.9853 155.5 40.9293 156.311 42.2358L181.584 83.0042C182.525 84.5233 182.873 86.1209 182.391 88.0623C181.599 91.2472 180.636 92.8694 175.599 93.0354L174.873 90.1775C175.463 88.5617 178.132 85.8892 176.781 84.951C176.995 83.2707 177.375 82.0703 175.711 81.4666L109.587 57.4676C107.658 56.7674 105.662 57.8083 104.96 59.7312L102.43 66.6606Z" fill="url(#paint1_linear)"/>
<path d="M99.2605 57.2119C100.025 55.53 101.463 54.2336 103.236 53.6496L148.876 38.6183C150.339 38.1367 151.872 38.1866 153.242 38.6841C154.612 39.181 155.818 40.125 156.628 41.4315L181.901 82.1999C182.882 83.7812 183.148 85.6921 182.654 87.4684C183.148 85.6921 182.882 83.7813 181.901 82.2001L156.628 41.4317C155.818 40.1251 154.612 39.1812 153.242 38.6843C151.872 38.1868 150.339 38.1369 148.876 38.6184L103.236 53.6497C101.463 54.2336 100.025 55.53 99.2605 57.2119Z" fill="white"/>
<path fill-rule="evenodd" clip-rule="evenodd" d="M99.024 57.9181C99.0438 57.8403 99.065 57.7626 99.0872 57.6851C99.8519 56.0032 101.29 54.7069 103.063 54.123L148.703 39.0917C150.166 38.6101 151.698 38.66 153.069 39.1575C154.438 39.6544 155.644 40.5984 156.454 41.9049L181.727 82.6733C182.708 84.2546 182.974 86.1654 182.48 87.9416C182.447 88.0162 182.413 88.0903 182.377 88.1632C182.796 86.4479 182.511 84.6242 181.57 83.1051L156.297 42.3367C155.487 41.0301 154.281 40.0862 152.912 39.5893C151.541 39.0918 150.008 39.0419 148.546 39.5234L102.905 54.5548C101.203 55.1154 99.8092 56.3331 99.024 57.9181Z" fill="#95B691"/>
<path d="M159.14 127.262L93.0155 103.263C91.0864 102.562 90.0925 100.436 90.7944 98.5135L105.297 58.7811C105.999 56.8581 108.131 55.8665 110.06 56.5667L176.184 80.5657C178.112 81.2653 179.107 83.3915 178.405 85.3145L163.902 125.047C163.2 126.97 161.068 127.961 159.14 127.262Z" fill="white"/>
<path d="M129.322 74.5057L110.453 67.6574C109.875 67.4476 109.577 66.8104 109.787 66.2342L110.623 63.9447C110.833 63.3684 111.472 63.0714 112.051 63.2813L130.92 70.1295C131.498 70.3394 131.796 70.9765 131.586 71.5528L130.75 73.8423C130.54 74.4185 129.901 74.7155 129.322 74.5057Z" fill="#C0CBC6"/>
<path d="M159.454 95.0261L112.293 77.9097L107.557 72.3426L107.678 72.0119C107.808 71.6542 108.205 71.4698 108.564 71.6001L167.899 93.135C168.089 93.2038 168.23 93.3469 168.301 93.5191L159.454 95.0261Z" fill="#C0CBC6"/>
<path d="M141.514 98.1059L134.527 95.5701C134.007 95.1695 133.43 94.8542 132.82 94.6328C132.209 94.4109 131.563 94.2824 130.907 94.256L123.923 91.7214L117.824 84.5518L150.808 96.5229L141.514 98.1059Z" fill="#C0CBC6"/>
<path d="M99.0526 57.7778L99.4941 56.5685C99.5205 56.4961 99.5494 56.4281 99.5792 56.3568C99.555 56.4319 99.5322 56.5069 99.5103 56.5823C99.4764 56.6572 99.4435 56.7329 99.4121 56.8095C99.3792 56.8899 99.3477 56.9711 99.3177 57.0533L99.0703 57.7309C99.0643 57.7464 99.0585 57.7619 99.0526 57.7778ZM182.781 87.2309C182.797 87.1821 182.813 87.1331 182.829 87.0844C182.855 87.0025 182.881 86.9211 182.903 86.8387C182.934 86.7698 182.963 86.7004 182.991 86.6299C182.969 86.7043 182.947 86.7748 182.921 86.8472L182.781 87.2309Z" fill="#F4F4F4"/>
<path d="M182.515 87.9289C182.541 87.847 182.567 87.7656 182.59 87.6832C182.567 87.7656 182.541 87.847 182.515 87.9289ZM99.0986 57.654C99.1299 57.5774 99.1628 57.5017 99.1968 57.4267C99.1628 57.5017 99.1299 57.5774 99.0986 57.654Z" fill="#F4F4F4"/>
<path fill-rule="evenodd" clip-rule="evenodd" d="M98.8514 58.3313L99.009 57.8995C99.039 57.8174 99.0705 57.7361 99.1034 57.6557C99.1348 57.5791 99.1677 57.5034 99.2016 57.4285C99.1793 57.506 99.1581 57.5837 99.1384 57.6615C99.0311 57.8781 98.9352 58.1017 98.8514 58.3313ZM182.314 88.5094C182.383 88.3104 182.442 88.109 182.491 87.9065C182.527 87.8337 182.562 87.7595 182.595 87.6849C182.572 87.7674 182.546 87.8488 182.52 87.9307C182.504 87.9793 182.488 88.0283 182.472 88.0771L182.314 88.5094Z" fill="url(#paint2_linear)"/>
<path d="M161.658 95.5876L159.531 94.8157L168.378 93.3087C168.442 93.4624 168.451 93.6396 168.389 93.8081L168.143 94.4832L161.658 95.5876ZM112.37 77.6993L110.243 76.9274L107.192 73.3414L107.634 72.1322L112.37 77.6993Z" fill="#C4C4C4"/>
<path d="M143.644 98.874L141.519 98.1027L150.813 96.5197L152.94 97.2916L143.644 98.874ZM123.928 91.7181L121.801 90.9462L115.702 83.7766L117.829 84.5485L123.928 91.7181Z" fill="#C4C4C4"/>
<path d="M182.535 87.9062L163.833 139.144C163.078 141.213 160.78 142.281 158.705 141.528L82.7973 113.978C80.722 113.225 79.6508 110.934 80.4063 108.865L99.1083 57.6275C99.1348 57.5549 99.1636 57.4871 99.1935 57.4156C98.4416 59.7447 98.8694 62.3024 100.358 64.267L128.277 97.0855C129.784 99.0722 132.324 99.9942 134.759 99.438L177.301 92.1926C179.704 91.6404 181.68 89.955 182.605 87.6888C182.584 87.7633 182.562 87.8336 182.535 87.9062Z" fill="#86A782"/>
<path d="M138.755 99.2437L138.429 98.813L177.301 92.1926C179.704 91.6404 181.68 89.955 182.605 87.6888C182.584 87.7633 182.562 87.8336 182.535 87.9062L182.346 88.4244C182.373 88.3519 182.394 88.2814 182.416 88.2072C181.491 90.4732 179.515 92.1587 177.112 92.7109L138.755 99.2437ZM125.34 94.374L100.169 64.7852C98.6802 62.8207 98.2524 60.2629 99.0043 57.9341C98.9745 58.0053 98.9456 58.0732 98.9191 58.1458L99.1083 57.6275C99.1348 57.5549 99.1636 57.4871 99.1935 57.4156C98.4416 59.7447 98.8694 62.3024 100.358 64.2669L125.867 94.2533L125.34 94.374Z" fill="#95B691"/>
<path fill-rule="evenodd" clip-rule="evenodd" d="M158.667 141.629L82.7602 114.08C80.6837 113.326 79.613 111.037 80.3688 108.966L80.6345 108.238C81.5112 105.836 83.5485 104.041 86.0466 103.468L125.301 94.4753L125.829 94.3545L127.059 94.0727L129.585 93.4941C130.143 93.3662 130.707 93.3161 131.262 93.3384C131.918 93.3648 132.564 93.4933 133.175 93.7152C133.785 93.9365 134.362 94.2519 134.882 94.6524C135.323 94.9914 135.721 95.3907 136.067 95.8466L137.63 97.91L138.39 98.9143L138.717 99.345L162.99 131.394C164.512 133.403 164.925 136.035 164.1 138.409L164.061 138.516C164.938 136.115 164.535 133.434 162.99 131.394L136.067 95.8466C135.314 94.852 134.302 94.124 133.175 93.7152C132.047 93.3057 130.803 93.2147 129.585 93.4941L86.0466 103.468C83.5485 104.041 81.5112 105.836 80.6345 108.238L80.3823 108.929C81.259 106.527 83.2963 104.732 85.7945 104.159L129.333 94.1851C130.55 93.9056 131.795 93.9966 132.923 94.4061C134.05 94.815 135.062 95.5429 135.814 96.5376L162.737 132.085C164.283 134.125 164.685 136.806 163.809 139.207L163.795 139.244C163.039 141.315 160.744 142.383 158.667 141.629Z" fill="url(#paint3_linear)"/>
<path fill-rule="evenodd" clip-rule="evenodd" d="M163.809 139.207C164.685 136.806 164.283 134.125 162.737 132.085L135.814 96.5376C135.062 95.5429 134.05 94.815 132.923 94.4061C131.795 93.9966 130.55 93.9056 129.333 94.1851L85.7945 104.159C83.2963 104.732 81.259 106.527 80.3823 108.929L80.6345 108.238C81.5112 105.836 83.5485 104.041 86.0466 103.468L129.585 93.4941C130.803 93.2147 132.047 93.3057 133.175 93.7152C134.302 94.124 135.314 94.852 136.067 95.8466L162.99 131.394C164.535 133.434 164.938 136.115 164.061 138.516L163.809 139.207Z" fill="#95B691"/>
<defs>
<filter id="filter0_d" x="163.243" y="10" width="56.7564" height="48.9624" filterUnits="userSpaceOnUse" color-interpolation-filters="sRGB">
<feFlood flood-opacity="0" result="BackgroundImageFix"/>
<feColorMatrix in="SourceAlpha" type="matrix" values="0 0 0 0 0 0 0 0 0 0 0 0 0 0 0 0 0 0 127 0" result="hardAlpha"/>
<feOffset dx="1" dy="2"/>
<feGaussianBlur stdDeviation="5"/>
<feColorMatrix type="matrix" values="0 0 0 0 0.254167 0 0 0 0 0.254167 0 0 0 0 0.254167 0 0 0 0.1 0"/>
<feBlend mode="normal" in2="BackgroundImageFix" result="effect1_dropShadow"/>
<feBlend mode="normal" in="SourceGraphic" in2="effect1_dropShadow" result="shape"/>
</filter>
<filter id="filter1_d" x="161.655" y="7.87939" width="66.6294" height="72.09" filterUnits="userSpaceOnUse" color-interpolation-filters="sRGB">
<feFlood flood-opacity="0" result="BackgroundImageFix"/>
<feColorMatrix in="SourceAlpha" type="matrix" values="0 0 0 0 0 0 0 0 0 0 0 0 0 0 0 0 0 0 127 0" result="hardAlpha"/>
<feOffset dx="4" dy="8"/>
<feGaussianBlur stdDeviation="12.5"/>
<feColorMatrix type="matrix" values="0 0 0 0 0.254167 0 0 0 0 0.254167 0 0 0 0 0.254167 0 0 0 0.1 0"/>
<feBlend mode="normal" in2="BackgroundImageFix" result="effect1_dropShadow"/>
<feBlend mode="normal" in="SourceGraphic" in2="effect1_dropShadow" result="shape"/>
</filter>
<linearGradient id="paint0_linear" x1="150.876" y1="45.2467" x2="131.416" y2="98.865" gradientUnits="userSpaceOnUse">
<stop stop-color="#66B559"/>
<stop offset="0.5" stop-color="#529947"/>
<stop offset="1" stop-color="#43793B"/>
</linearGradient>
<linearGradient id="paint1_linear" x1="150.876" y1="45.2467" x2="138.366" y2="79.6628" gradientUnits="userSpaceOnUse">
<stop stop-color="#86A782"/>
<stop offset="1" stop-color="#6A8F65"/>
</linearGradient>
<linearGradient id="paint2_linear" x1="140.852" y1="72.684" x2="140.407" y2="73.9115" gradientUnits="userSpaceOnUse">
<stop stop-color="#66B559"/>
<stop offset="0.5" stop-color="#529947"/>
<stop offset="1" stop-color="#43793B"/>
</linearGradient>
<linearGradient id="paint3_linear" x1="131.392" y1="98.6021" x2="120.745" y2="127.897" gradientUnits="userSpaceOnUse">
<stop stop-color="#86A782"/>
<stop offset="1" stop-color="#6A8F65"/>
</linearGradient>
</defs>
</svg>
