<svg width="24" height="24" viewBox="0 0 24 24" fill="none" xmlns="http://www.w3.org/2000/svg">
<g clip-path="url(#clip0)">
<path d="M22.222 0.000610352H1.7713C0.793301 0.000610352 -0.000366211 0.77561 -0.000366211 1.72994V22.2689C-0.000366211 23.2246 0.793301 24.0006 1.7713 24.0006H22.222C23.2006 24.0006 23.9996 23.2246 23.9996 22.2689V1.72994C23.9996 0.77561 23.2006 0.000610352 22.222 0.000610352ZM7.11763 20.4519H3.5563V8.99894H7.11763V20.4519ZM5.33697 7.43294C5.06589 7.43294 4.79748 7.37953 4.54706 7.27575C4.29663 7.17198 4.06911 7.01988 3.8775 6.82814C3.68588 6.6364 3.53393 6.40878 3.43031 6.15829C3.3267 5.9078 3.27346 5.63935 3.27363 5.36828C3.27363 4.82109 3.491 4.29632 3.87792 3.9094C4.26484 3.52248 4.78961 3.30511 5.3368 3.30511C5.88399 3.30511 6.40876 3.52248 6.79568 3.9094C7.1826 4.29632 7.39997 4.82109 7.39997 5.36828C7.39997 5.91557 7.18267 6.44048 6.79583 6.82763C6.40899 7.21478 5.88426 7.4325 5.33697 7.43294ZM20.4496 20.4519H16.894V14.8826C16.894 13.5539 16.868 11.8456 15.0436 11.8456C13.191 11.8456 12.9086 13.2926 12.9086 14.7863V20.4523H9.3503V8.99894H12.7653V10.5629H12.814C13.2893 9.66294 14.4506 8.71328 16.1826 8.71328C19.7846 8.71328 20.45 11.0846 20.45 14.1696V20.4519H20.4496Z" fill="#4F8066"/>
</g>
<defs>
<clipPath id="clip0">
<rect width="24" height="24" fill="white"/>
</clipPath>
</defs>
</svg>
