<svg width="80" height="80" viewBox="0 0 80 80" fill="none" xmlns="http://www.w3.org/2000/svg">
<rect width="80" height="80" rx="8" fill="#4F8066"/>
<path d="M54.5833 21.25H45.875C45 18.8334 42.7083 17.0834 40 17.0834C37.2917 17.0834 35 18.8334 34.125 21.25H25.4167C23.125 21.25 21.25 23.125 21.25 25.4167V54.5834C21.25 56.875 23.125 58.75 25.4167 58.75H54.5833C56.875 58.75 58.75 56.875 58.75 54.5834V25.4167C58.75 23.125 56.875 21.25 54.5833 21.25ZM40 21.25C41.1458 21.25 42.0833 22.1875 42.0833 23.3334C42.0833 24.4792 41.1458 25.4167 40 25.4167C38.8542 25.4167 37.9167 24.4792 37.9167 23.3334C37.9167 22.1875 38.8542 21.25 40 21.25ZM35.8333 50.4167L27.5 42.0834L30.4375 39.1459L35.8333 44.5209L49.5625 30.7917L52.5 33.75L35.8333 50.4167Z" fill="white"/>
</svg>
