<svg width="24" height="24" viewBox="0 0 24 24" fill="none" xmlns="http://www.w3.org/2000/svg">
<g clip-path="url(#clip0)">
<path d="M24.0004 4.3089C23.1018 4.70699 22.1486 4.96817 21.1726 5.08373C22.2006 4.4686 22.97 3.50066 23.3372 2.3603C22.3709 2.93396 21.3134 3.33791 20.2108 3.55464C19.7501 3.06326 19.1934 2.67173 18.5751 2.40431C17.9569 2.13689 17.2904 1.99928 16.6168 2C13.8978 2 11.693 4.20418 11.693 6.92386C11.693 7.30941 11.7366 7.6856 11.8207 8.04621C7.72844 7.84081 4.10053 5.88037 1.67195 2.90106C1.23406 3.65253 1.00397 4.50696 1.00527 5.3767C1.00463 6.18738 1.20424 6.98566 1.58638 7.70061C1.96851 8.41557 2.52134 9.02506 3.19573 9.47493C2.41396 9.4501 1.64941 9.23895 0.965688 8.85906C0.965065 8.87963 0.965065 8.89989 0.965065 8.92108C0.965065 11.306 2.66214 13.2961 4.91431 13.7489C4.18912 13.9453 3.42877 13.974 2.69082 13.8331C3.31729 15.7889 5.1356 17.2129 7.29022 17.2528C5.54606 18.6216 3.39225 19.364 1.17513 19.3607C0.777748 19.3607 0.385971 19.3376 0.000427246 19.2918C2.25177 20.7383 4.87197 21.5061 7.54798 21.5035C16.6047 21.5035 21.5572 14.0011 21.5572 7.49516C21.5572 7.28198 21.5522 7.0691 21.5429 6.85748C22.5074 6.16116 23.3396 5.29806 24.0004 4.3089Z" fill="#4F8066"/>
</g>
<defs>
<clipPath id="clip0">
<rect width="24" height="24" fill="white"/>
</clipPath>
</defs>
</svg>
