<svg width="300" height="251" viewBox="0 0 300 251" fill="none" xmlns="http://www.w3.org/2000/svg">
<path fill-rule="evenodd" clip-rule="evenodd" d="M0.015625 225.663C0.015625 212.039 11.0599 200.995 24.6838 200.995H275.33C288.954 200.995 299.998 212.039 299.998 225.663C299.998 239.287 288.954 250.331 275.33 250.331H24.6838C11.0599 250.331 0.015625 239.287 0.015625 225.663Z" fill="black"/>
<path fill-rule="evenodd" clip-rule="evenodd" d="M0.015625 125.663C0.015625 112.039 11.0599 100.995 24.6838 100.995H275.33C288.954 100.995 299.998 112.039 299.998 125.663C299.998 139.287 288.954 150.331 275.33 150.331H24.6838C11.0599 150.331 0.015625 139.287 0.015625 125.663Z" fill="black"/>
<path fill-rule="evenodd" clip-rule="evenodd" d="M0.015625 25.6627C0.015625 12.0389 11.0599 0.994537 24.6838 0.994537H275.33C288.954 0.994537 299.998 12.0389 299.998 25.6627C299.998 39.2866 288.954 50.3309 275.33 50.3309H24.6838C11.0599 50.3309 0.015625 39.2866 0.015625 25.6627Z" fill="black"/>
</svg>
