<svg width="42" height="42" viewBox="0 0 42 42" fill="none" xmlns="http://www.w3.org/2000/svg">
    <path fill-rule="evenodd" clip-rule="evenodd" d="M21 42C32.598 42 42 32.598 42 21C42 9.40202 32.598 0 21 0C9.40202 0 0 9.40202 0 21C0 32.598 9.40202 42 21 42ZM14.3383 21C14.3383 17.3102 17.3139 14.3339 21.0029 14.3339C24.6919 14.3339 27.6675 17.3102 27.6675 21C27.6675 24.6898 24.6919 27.6661 21.0029 27.6661C17.3139 27.6661 14.3383 24.6898 14.3383 21ZM16.67 21C16.67 23.3903 18.619 25.3338 21.0029 25.3338C23.3868 25.3338 25.3358 23.3903 25.3358 21C25.3358 18.6097 23.3926 16.6662 21.0029 16.6662C18.6132 16.6662 16.67 18.6097 16.67 21ZM27.9401 15.6161C28.7986 15.6161 29.4946 14.9257 29.4946 14.0613C29.4946 13.2026 28.7986 12.5064 27.9401 12.5064C27.0817 12.5064 26.3856 13.2026 26.3856 14.0613C26.3856 14.9199 27.0759 15.6161 27.9401 15.6161ZM31.8089 10.1916C33.3344 11.7116 33.81 13.5565 33.9086 15.6393C34.0305 17.7859 34.0305 24.2141 33.9086 26.3607C33.8042 28.4435 33.3286 30.2884 31.8089 31.8084C30.2892 33.3343 28.4447 33.81 26.3624 33.9086C24.2163 34.0305 17.7837 34.0305 15.6376 33.9086C13.5553 33.8042 11.7166 33.3285 10.1911 31.8084C8.66559 30.2884 8.18996 28.4435 8.09136 26.3607C7.96955 24.2141 7.96955 17.7801 8.09136 15.6335C8.19576 13.5507 8.66559 11.7058 10.1911 10.1858C11.7166 8.66574 13.5611 8.19 15.6376 8.09138C17.7837 7.96954 24.2163 7.96954 26.3624 8.09138C28.4447 8.1958 30.2892 8.67154 31.8089 10.1916ZM28.6651 31.1354C29.8078 30.6771 30.6837 29.8011 31.1361 28.664C31.7182 27.201 31.6858 24.0008 31.6648 21.9263C31.6613 21.5822 31.6581 21.2691 31.6581 21C31.6581 20.7309 31.6613 20.4178 31.6648 20.0738C31.6858 18.0004 31.7182 14.804 31.1361 13.336C30.6779 12.1931 29.802 11.3171 28.6651 10.8646C27.1979 10.2855 23.9829 10.3163 21.9095 10.3362C21.5732 10.3395 21.2668 10.3424 21.0029 10.3424C20.7338 10.3424 20.4208 10.3392 20.0769 10.3357C18.004 10.3147 14.8083 10.2824 13.3407 10.8646C12.198 11.3229 11.3221 12.1989 10.8697 13.336C10.2908 14.8036 10.3216 18.0193 10.3415 20.0932C10.3447 20.4296 10.3477 20.736 10.3477 21C10.3477 21.2691 10.3445 21.5822 10.341 21.9262C10.32 23.9996 10.2876 27.196 10.8697 28.664C11.3279 29.8069 12.2038 30.6829 13.3407 31.1354C14.8079 31.7145 18.0229 31.6837 20.0963 31.6638C20.4326 31.6605 20.739 31.6576 21.0029 31.6576C21.272 31.6576 21.585 31.6608 21.9289 31.6642C24.0018 31.6853 27.1975 31.7176 28.6651 31.1354Z"></path>
</svg>
