<svg width="54" height="61" viewBox="0 0 54 61" fill="none" xmlns="http://www.w3.org/2000/svg">
<path fill-rule="evenodd" clip-rule="evenodd" d="M26.2744 0.687191C26.7259 0.437603 27.2741 0.437603 27.7256 0.687191L52.7256 14.5054C53.2034 14.7695 53.5 15.2723 53.5 15.8182V44.75C53.5 45.2889 53.211 45.7863 52.7428 46.0532L27.7428 60.3032C27.2824 60.5656 26.7176 60.5656 26.2572 60.3032L1.2572 46.0532C0.789043 45.7863 0.5 45.2889 0.5 44.75V15.8182C0.5 15.2723 0.796588 14.7695 1.27437 14.5054L26.2744 0.687191ZM6.11515 19.9324L10.4236 27.3742L12.586 23.6766L6.11515 19.9324ZM15.1826 25.1791L12.1525 30.3606L15.0936 35.4406L24.005 30.2841L15.1826 25.1791ZM27 28.5511L16.6971 22.5894L27 4.9714L37.3029 22.5894L27 28.5511ZM27 32.0171L16.5967 38.0368L27 56.0062L37.4033 38.0368L27 32.0171ZM38.9064 35.4406L29.995 30.2841L38.8174 25.1791L41.8475 30.3606L38.9064 35.4406ZM39.9999 39.5393L31.0789 54.9485L48.9881 44.7402L39.9999 39.5393ZM47.8418 40.6109L41.5031 36.9431L43.5894 33.3393L47.8418 40.6109ZM50.5 39.2136V21.4029L45.3184 30.353L50.5 39.2136ZM43.5764 27.3742L47.8849 19.9324L41.414 23.6766L43.5764 27.3742ZM39.8996 21.0869L48.9533 15.8481L31.0486 5.95163L39.8996 21.0869ZM22.9514 5.95163L14.1004 21.0869L5.04668 15.8481L22.9514 5.95163ZM22.9211 54.9485L5.0119 44.7402L14.0001 39.5393L22.9211 54.9485ZM12.4969 36.9431L10.4106 33.3393L6.15818 40.6109L12.4969 36.9431ZM3.5 39.2136L8.68164 30.353L3.5 21.4029V39.2136Z" fill="url(#paint0_linear)"/>
<defs>
<linearGradient id="paint0_linear" x1="27.086" y1="35.0411" x2="54.0858" y2="16.2326" gradientUnits="userSpaceOnUse">
<stop stop-color="#4F8066"/>
<stop offset="0.3125" stop-color="#4F8066"/>
<stop offset="0.697917" stop-color="#43793B"/>
<stop offset="1" stop-color="#4F8066"/>
</linearGradient>
</defs>
</svg>
