<svg xmlns="http://www.w3.org/2000/svg" viewBox="0 0 60 13">
    <path d="M20.486 11.189h-1.354V7.714h-3.496v3.475h-1.36v-7.82h1.36v3.254h3.496V3.37h1.354v7.82zM27.587 4.464h-2.439v6.725H23.8V4.464h-2.417V3.37h6.204v1.095zM30.38 3.369l2.255 5.994 2.25-5.994h1.757v7.82H35.29V8.61l.134-3.448-2.31 6.026h-.972l-2.304-6.021.134 3.443v2.578h-1.353v-7.82h1.761zM39.612 10.104h3.55v1.085h-4.908v-7.82h1.358v6.735zM46.61 8.39h-2.819V7.339h2.82V8.39zM52.385 7.698h-3.212v2.406h3.754v1.085h-5.113v-7.82h5.076v1.095h-3.717v2.16h3.212v1.074zM58.121 9.175c0-.344-.122-.609-.365-.795-.24-.186-.675-.374-1.305-.564-.63-.19-1.132-.401-1.504-.634-.713-.448-1.069-1.031-1.069-1.75 0-.631.256-1.15.768-1.559.516-.408 1.184-.612 2.004-.612.544 0 1.029.1 1.455.3.426.201.76.488 1.004.86.244.37.366.78.366 1.23H58.12c0-.408-.129-.727-.387-.956-.254-.233-.619-.349-1.095-.349-.444 0-.79.095-1.037.285-.243.19-.365.455-.365.795 0 .286.132.526.397.72.265.19.702.375 1.31.558.61.18 1.098.385 1.467.618.369.229.64.494.811.795.172.297.258.646.258 1.047 0 .652-.25 1.17-.752 1.558-.498.383-1.174.574-2.03.574a3.867 3.867 0 01-1.563-.311c-.473-.211-.842-.502-1.107-.87a2.172 2.172 0 01-.392-1.29h1.36c0 .445.146.788.44 1.032.293.243.714.365 1.262.365.472 0 .827-.095 1.063-.285a.932.932 0 00.36-.762z" fill="#000"/>
    <path fill-rule="evenodd" clip-rule="evenodd" d="M7.49 4.445L4.962.917l-.573 4.3L.196 6.523l3.96 1.84-.066 4.335 3.022-3.163 4.153 1.374-2.093-3.796 2.633-3.484-4.316.817zm1.933.657l-2.391.453-1.4-1.955-.317 2.383-2.324.723 2.194 1.02-.036 2.4 1.674-1.752 2.3.762-1.159-2.103 1.459-1.93z" fill="#000"/>
</svg>